Coordinates
version=1
nRows=7
nColumns=40
inDegrees=yes

Units are S.I. units (second, meters, Newtons, ...)
If the header above contains a line with 'inDegrees', this indicates whether rotational values are in degrees (yes) or radians (no).

endheader
time	pelvis_tilt	pelvis_list	pelvis_rotation	pelvis_tx	pelvis_ty	pelvis_tz	hip_flexion_r	hip_adduction_r	hip_rotation_r	knee_angle_r	knee_angle_r_beta	ankle_angle_r	subtalar_angle_r	mtp_angle_r	hip_flexion_l	hip_adduction_l	hip_rotation_l	knee_angle_l	knee_angle_l_beta	ankle_angle_l	subtalar_angle_l	mtp_angle_l	lumbar_extension	lumbar_bending	lumbar_rotation	arm_flex_r	arm_add_r	arm_rot_r	elbow_flex_r	pro_sup_r	wrist_flex_r	wrist_dev_r	arm_flex_l	arm_add_l	arm_rot_l	elbow_flex_l	pro_sup_l	wrist_flex_l	wrist_dev_l
      0.90000000	     12.95849533	     -7.61073308	     -3.24319405	     -0.25720993	      1.06666834	     -1.04465989	     17.30815368	     -0.14803085	    -11.29683004	      2.76541828	      0.04826565	     -6.79952178	      0.00000000	      0.00000000	     -8.13648909	     -3.69703570	    -15.42478385	     16.41457643	      0.28648840	     -1.88259364	      0.00000000	      0.00000000	    -13.98979127	      2.91610792	      5.15206735	     78.73323588	    -23.31578868	     47.91758911	     36.79650508	     86.19635669	      0.00000000	      0.00000000	     85.90442042	    -21.58722438	     64.76470131	     41.96798397	     86.73553080	      0.00000000	      0.00000000
      0.90500000	     13.03719444	     -7.60251620	     -3.16078532	     -0.25715179	      1.06670072	     -1.04473124	     17.41723732	     -0.19938200	    -11.37330487	      2.81576637	      0.04914439	     -6.68393179	      0.00000000	      0.00000000	     -8.19472412	     -3.71524534	    -15.52167437	     16.45862196	      0.28725714	     -1.90510368	      0.00000000	      0.00000000	    -14.03996736	      2.90026765	      5.07152248	     78.72193141	    -23.28459065	     48.01348394	     36.76395480	     86.11900458	      0.00000000	      0.00000000	     85.91845738	    -21.63955464	     64.83680270	     42.05862297	     86.83190890	      0.00000000	      0.00000000
      0.91000000	     13.04585641	     -7.64186503	     -3.04643379	     -0.25723147	      1.06658890	     -1.04489526	     17.58436788	     -0.21467467	    -11.46614497	      2.80919565	      0.04902971	     -6.64558067	      0.00000000	      0.00000000	     -8.11674214	     -3.80176302	    -15.46805506	     16.61230179	      0.28993936	     -1.79348075	      0.00000000	      0.00000000	    -14.03612731	      2.93715799	      5.01463528	     78.67192103	    -23.30630201	     47.87389450	     36.71784548	     86.14323458	      0.00000000	      0.00000000	     85.92543200	    -21.56696653	     64.81152451	     42.03150926	     86.77871405	      0.00000000	      0.00000000
      0.91500000	     13.10972789	     -7.66557997	     -2.94742474	     -0.25720285	      1.06661862	     -1.04497422	     17.70161552	     -0.23297061	    -11.67994317	      2.84434336	      0.04964316	     -6.61510080	      0.00000000	      0.00000000	     -8.11410296	     -3.86908246	    -15.52271886	     16.74449291	      0.29224653	     -1.79101436	      0.00000000	      0.00000000	    -14.07365291	      2.95807281	      4.92723046	     78.63737895	    -23.30068804	     47.94786232	     36.72803847	     85.97062786	      0.00000000	      0.00000000	     85.96480115	    -21.61305498	     64.97836744	     42.09365287	     86.83623263	      0.00000000	      0.00000000
      0.92000000	     13.21471516	     -7.63345060	     -2.90866958	     -0.25714706	      1.06678286	     -1.04498893	     17.74503176	     -0.28595258	    -11.63856166	      2.79088012	      0.04871005	     -6.67471774	      0.00000000	      0.00000000	     -8.23349389	     -3.83279750	    -15.50664878	     16.71523621	      0.29173591	     -1.85288144	      0.00000000	      0.00000000	    -14.15161143	      2.89848888	      4.93385818	     78.56814738	    -23.29689246	     47.75939297	     36.67929927	     86.22179994	      0.00000000	      0.00000000	     85.93778581	    -21.53625079	     64.89455009	     42.04639385	     86.73652323	      0.00000000	      0.00000000
      0.92500000	     13.27484034	     -7.65522449	     -2.82500281	     -0.25711617	      1.06674584	     -1.04506855	     17.86024297	     -0.30382475	    -11.75054481	      2.82394413	      0.04928712	     -6.59561099	      0.00000000	      0.00000000	     -8.25435029	     -3.88583406	    -15.46355768	     16.81426792	      0.29346434	     -1.78257173	      0.00000000	      0.00000000	    -14.19371669	      2.90243197	      4.91494280	     78.53812017	    -23.36859581	     47.79929255	     36.72081103	     86.12332554	      0.00000000	      0.00000000	     85.98929474	    -21.50479874	     65.02829314	     42.07867537	     86.78790559	      0.00000000	      0.00000000
      0.93000000	     13.28355130	     -7.69896073	     -2.70562973	     -0.25715676	      1.06666221	     -1.04518191	     18.01015291	     -0.30713412	    -11.84076193	      2.81246033	      0.04908669	     -6.59536721	      0.00000000	      0.00000000	     -8.20062014	     -3.96432122	    -15.33680825	     16.90014967	      0.29496326	     -1.73091198	      0.00000000	      0.00000000	    -14.17377307	      2.95649381	      4.84789034	     78.50591787	    -23.37909852	     47.73523071	     36.67925766	     86.25562841	      0.00000000	      0.00000000	     85.96745092	    -21.45689207	     64.96636289	     42.06604577	     86.70785505	      0.00000000	      0.00000000
